<?xml version="1.0" encoding="utf-8"?>
<!-- Generator: Adobe Illustrator 19.0.0, SVG Export Plug-In . SVG Version: 6.00 Build 0)  -->
<svg version="1.1" id="Layer_1" xmlns="http://www.w3.org/2000/svg" xmlns:xlink="http://www.w3.org/1999/xlink" x="0px" y="0px"
	 viewBox="0 0 500 500" style="enable-background:new 0 0 500 500;" xml:space="preserve">
<style type="text/css">
	.st0{fill:#F0DB4F;}
	.st1{fill:#323330;}
</style>
<rect id="XMLID_2_" x="0" y="0" class="st0" width="500" height="500"/>
<g id="XMLID_3_">
	<path id="XMLID_4_" class="st1" d="M307.6,443.2h-32.4l-22.4-34.4c-2.6,0.4-5.4,0.6-8,0.6h-9.6v33.8h-28v-136h37.6
		c38,0,60.8,18.2,60.8,51.4c0,21.2-9.4,34.6-26.2,42.2L307.6,443.2z M244,385c22.8,0,32.8-7.2,32.8-26.4c0-19.2-10.4-26.8-32.8-26.8
		h-8.8V385H244z"/>
	<path id="XMLID_7_" class="st1" d="M314,307.2h30l23.4,52.4c5.2,11.6,10.6,30.8,10.6,30.8s5.2-19,10.4-30.8l22.8-52.4h27.2
		l-59.6,137.2H376L314,307.2z"/>
</g>
</svg>
